<?xml version="1.0" encoding="utf-8"?>
<!-- Generator: Adobe Illustrator 24.2.3, SVG Export Plug-In . SVG Version: 6.00 Build 0)  -->
<svg version="1.1" id="Layer_1" xmlns="http://www.w3.org/2000/svg" xmlns:xlink="http://www.w3.org/1999/xlink" x="0px" y="0px"
	 viewBox="0 0 16 16" style="enable-background:new 0 0 16 16;" xml:space="preserve">
<style type="text/css">
	.st0{fill:#231F20;}
	.st1{fill:none;stroke:#231F20;stroke-width:0.25;stroke-linecap:round;stroke-linejoin:round;stroke-miterlimit:10;}
</style>
<path class="st0" d="M5.5,9.4V8.5h1v0.9c0,0.1,0,0.2,0,0.2l0.4,1.6L6,11.9l-0.9-0.6l0.4-1.6C5.5,9.6,5.5,9.5,5.5,9.4z"/>
<path class="st1" d="M9.3,0H4C2.9,0,2,0.9,2,2v12c0,1.1,0.9,2,2,2h8c1.1,0,2-0.9,2-2V4.7c0-0.3-0.1-0.5-0.3-0.7L10,0.3
	C9.8,0.1,9.6,0,9.3,0z M10.5,4V2l3,3h-2C11,5,10.5,4.5,10.5,4z M4.5,2.1L3.2,2.9L2.7,2L4,1.3L4.5,2.1z M3.6,3.3L5,2.8l0.4,0.9
	L3.9,4.3L3.6,3.3z M4.2,4.8l1.5-0.4l0.2,1L4.5,5.8L4.2,4.8z M6.3,7.1L4.8,7.3l-0.2-1l1.5-0.2L6.3,7.1z M8.6,1.3L9.9,2L9.4,2.9
	L8.1,2.1L8.6,1.3z M8.7,4.3L7.3,3.7l0.4-0.9L9,3.3L8.7,4.3z M8.2,5.8L6.7,5.4l0.2-1l1.5,0.4L8.2,5.8z M6.5,6.1L8,6.3l-0.2,1L6.3,7.1
	L6.5,6.1z M5.5,7.5h1c0.6,0,1,0.4,1,1v0.9L7.9,11c0.1,0.4-0.1,0.8-0.4,1.1l-0.9,0.6c-0.3,0.2-0.8,0.2-1.1,0l-0.9-0.6
	C4.2,11.9,4,11.4,4.1,11l0.4-1.6V8.5C4.5,7.9,4.9,7.5,5.5,7.5z"/>
</svg>
